<?xml version="1.0" encoding="UTF-8"?>
<svg id="Layer_1" xmlns="http://www.w3.org/2000/svg" version="1.1" viewBox="0 0 616.09 579.91">
  <!-- Generator: Adobe Illustrator 29.6.1, SVG Export Plug-In . SVG Version: 2.1.1 Build 9)  -->
  <defs>
    <style>
      .st0 {
        fill: #2778fe;
      }
    </style>
  </defs>
  <path class="st0" d="M139.05,142.87c.55-26.1,23.36-46.32,48.51-48.99l220.01-.04c17.23,3.22,16.97,28.01-1.02,30.03l-217.76.24c-9.64,2.39-19.33,11.2-20.65,21.35-1.44,11.08,3.1,25.89-13.55,27.45-31.61,2.97-68.53-3.21-100.03-.03-12.98,1.31-24.37,13.54-25.55,26.45v321.08c1.93,17.19,16.65,28.87,33.5,29.5h488.08c17.25-1.3,31.52-10.07,35.37-27.63,2.47-97.8.42-196.01,1.14-293.96.04-5.38-1.75-6.93,1.06-12.85,6.86-14.46,27.03-8.37,27.89,6.89l.05,298.05c-2.21,35.33-27.56,58.12-62.5,59.5H60.5c-32.09-2.06-56-22.31-60.49-54.51V195.32c3.39-31.8,27.43-50.56,58.49-52.5,26.22-1.64,54.15,1.3,80.55.05Z"/>
  <path class="st0" d="M322.06,212.86c1.42,1.02,6.11-4.81,7.51-5.97,15.22-12.59,39.77-23.25,59.91-19.97,15.64,2.55-5.78,30.67-4.44,31.94,108.94,25.43,154.7,154.64,90.81,246.32-72.11,103.47-244.18,100.67-315.04-2.59-48.46-70.62-32.77-166.75,35.9-217.54,25.42-18.8,65.87-36.42,97.31-25.19-3.55-11.67-10.88-23.42-20.52-30.97-4.6-3.6-11.64-5.51-14.69-10.31-6.94-10.9,2.3-23.39,14.47-21.48,21.62,3.39,43.13,36.06,48.76,55.76ZM383.05,335.36c.56,5.03,0,11.72,0,17,0,.41-2.57,1.75.49,1.49,7.24-7.37,39.21-29.21,47.41-16.4,7.05,11.02-9.87,16.21-15.82,19.98-19.16,12.16-27.86,25.41-42.57,41.43-36.81,40.1-74.21,85.75-132.51,92l17.74,8.74c101.61,38.41,225.16-22.62,217.29-140.29-3.73-55.75-56.11-110.76-113.04-111.45,9.09,9.14,16.74,18.39,20.45,31.04,4.65,15.86,4.89,22.41-13.46,18.46-18.46-3.97-36.78-15.07-52.3-25.36-14.62,7.13-29.08,15.09-44.44,20.59-5.84,2.09-26.49,10.73-27.2-.3-.54-8.34,12.71-30.86,18.45-37.46l7.51-6.98c-87.24,12.71-136.01,108.51-92.51,187.01,18.29,33.01,39.54,37.46,75.04,27,20.03-5.9,38.54-16.97,52.95-31.97-9.81-41.03,9.11-82.26,45.86-102.22,5.5-2.99,20.9-10.46,26.18-5.84,1.35,1.18,4.26,11.43,4.49,13.51Z"/>
  <path class="st0" d="M554.78,1.1c9.19-1.64,39.79-1.2,49.8-.28,7.21.67,8.83,2.23,9.5,9.5,1.08,11.74,1.07,35.34,0,47.09-.6,6.64-3.09,7.9-9.51,8.49-11.94,1.11-36.13,1.1-48.09,0-5.05-.46-7.84-2.09-8.47-7.53-1.23-10.57-1.22-39.46,0-50.04.5-4.35,2.45-6.47,6.76-7.24Z"/>
  <path class="st0" d="M66.76,207.08c6.01-1.32,36.86-1.04,43.8-.23,5.18.6,6.09,2.63,6.53,7.47.8,8.92,1.14,31.58,0,40.1-.51,3.84-2.79,5.04-6.53,5.47-9.43,1.09-31.43.9-41.07.03-4.03-.37-6.9-1.01-7.5-5.5-1.01-7.52-1.01-34.57,0-42.1.39-2.9,1.81-4.59,4.76-5.24Z"/>
  <path class="st0" d="M471.76,75.07c5.15-1.16,30.86-.92,36.81-.23,3.73.43,6.02,1.63,6.53,5.47.95,7.14.94,31.96,0,39.1-.51,3.87-2.85,5.05-6.53,5.47-5.18.6-34.87.74-38.58-.46-2.86-.93-3.63-3.27-3.96-6.04-1.38-11.72,1.03-25.98.04-37.99.44-2.36,3.39-4.8,5.69-5.31Z"/>
  <path class="st0" d="M566.76,129.07c4.16-.93,22.1-.78,26.81-.23,2.12.24,4.1.76,5.51,2.49,2.81,3.47,2.72,26.81,1.31,31.37-1.09,3.53-3.21,4.77-6.81,5.19-4.37.5-24.13.61-27.57-.47-3.13-.98-4.61-3.92-4.97-7.03-.54-4.64-.74-21.8.05-26,.44-2.36,3.39-4.8,5.69-5.31Z"/>
  <path class="st0" d="M513.76,195.08c3.45-.76,18.05-.73,21.73-.16,8.84,1.39,7.39,18.57,6.58,25.46-.54,4.59-2.85,6.96-7.5,7.5s-22.04.94-24.57-2.47c-3.35-4.51-4.14-28.59,3.77-30.33Z"/>
</svg>